<?xml version="1.0" encoding="UTF-8"?>
<svg id="Calque_2" data-name="Calque 2" xmlns="http://www.w3.org/2000/svg" viewBox="0 0 100.48 114.29">
  <defs>
    <style>
      .cls-1 {
        fill: #2b2b2b;
      }
    </style>
  </defs>
  <g id="Calque_1-2" data-name="Calque 1">
    <g>
      <path class="cls-1" d="M57.89,78.32c-2.05-1.9-.42-5.18-.14-7.45.59-4.83.59-9.72-2.49-13.78-4.54-5.97-13.27-7.1-20.16-8.37-.17.2.3,3.78.38,4.46,1.39,11.76,4.72,25.23,5.29,36.76.54,11.01-10.55,21.37-20.68,23.69-14.27,3.27-25.66-6.01-17.16-20.16,5.38-8.96,17.44-15,27.84-13.37l-8.34-57.57c-.74-3.67,2.35-6.92,5.97-5.3,1.96.88,2.57,3.47,3.77,5.24,9.02,13.29,29.27,14.3,32.88,34.53.74,4.16.72,17.12-1.57,20.6-1.13,1.72-4.1,2.1-5.57.73Z"/>
      <path class="cls-1" d="M63.71.07c1.79-.34,3.64.66,4.01,2.51.42,2.07-1.25,4.25-1.93,6.26-2.01,5.92-2.99,11.75-3.74,17.96-.57,2.12-3.69,2.62-5.25,1.39-2.1-1.65-.68-8.11-.25-10.56.77-4.39,2.23-9.9,4.08-13.94.69-1.52,1.22-3.26,3.07-3.61Z"/>
      <path class="cls-1" d="M72.92,42.16c1.09-1.13,7.25-3.49,9.06-4.13,3.45-1.21,13.34-4.16,16.54-3.18,2.64.8,2.66,5.13-.16,6.22-1.85.71-5.68.87-7.94,1.41-2.37.56-5.06,1.47-7.36,2.32-1.74.64-6.19,3.06-7.51,3.18-3.14.3-4.64-3.75-2.64-5.82Z"/>
      <path class="cls-1" d="M90.04,13.46c.95.93,1.12,2.93.47,4.07-2.9,2.49-6.17,4.43-9.03,6.99-1.6,1.44-3.34,3.27-4.84,4.84-2.04,2.14-4.99,7.99-8.35,4.02-1.05-1.24-1.07-2.3-.41-3.77s5.21-6.42,6.58-7.77c1.51-1.49,3.84-3.48,5.53-4.81,2.35-1.86,7.25-6.3,10.05-3.56Z"/>
    </g>
  </g>
</svg>